<svg xmlns="http://www.w3.org/2000/svg" xmlns:xlink="http://www.w3.org/1999/xlink" width="800" zoomAndPan="magnify" viewBox="0 0 600 599.999999" height="800" preserveAspectRatio="xMidYMid meet" version="1.0"><defs><clipPath id="5e50782fed"><path d="M 523 453 L 539.628906 453 L 539.628906 470 L 523 470 Z M 523 453 " clip-rule="nonzero"/></clipPath><clipPath id="c319cf0aaf"><path d="M 395 405 L 508 405 L 508 557.25 L 395 557.25 Z M 395 405 " clip-rule="nonzero"/></clipPath><clipPath id="5c82312573"><path d="M 42.378906 60 L 219 60 L 219 237 L 42.378906 237 Z M 42.378906 60 " clip-rule="nonzero"/></clipPath><clipPath id="10d4abe575"><path d="M 188.882812 190.992188 L 199.074219 190.992188 L 199.074219 201.183594 L 188.882812 201.183594 Z M 188.882812 190.992188 " clip-rule="nonzero"/></clipPath><clipPath id="db46d6f79b"><path d="M 193.976562 190.992188 C 191.164062 190.992188 188.882812 193.273438 188.882812 196.089844 C 188.882812 198.902344 191.164062 201.183594 193.976562 201.183594 C 196.792969 201.183594 199.074219 198.902344 199.074219 196.089844 C 199.074219 193.273438 196.792969 190.992188 193.976562 190.992188 Z M 193.976562 190.992188 " clip-rule="nonzero"/></clipPath><clipPath id="32e78bc63a"><path d="M 0.882812 0.992188 L 11.074219 0.992188 L 11.074219 11.183594 L 0.882812 11.183594 Z M 0.882812 0.992188 " clip-rule="nonzero"/></clipPath><clipPath id="1a8ce45542"><path d="M 5.976562 0.992188 C 3.164062 0.992188 0.882812 3.273438 0.882812 6.089844 C 0.882812 8.902344 3.164062 11.183594 5.976562 11.183594 C 8.792969 11.183594 11.074219 8.902344 11.074219 6.089844 C 11.074219 3.273438 8.792969 0.992188 5.976562 0.992188 Z M 5.976562 0.992188 " clip-rule="nonzero"/></clipPath><clipPath id="cc354eebcf"><rect x="0" width="12" y="0" height="12"/></clipPath></defs><path fill="#ffffff" d="M 363.417969 453.273438 L 379.46875 453.273438 L 379.46875 469.328125 L 363.417969 469.328125 Z M 363.417969 453.273438 " fill-opacity="1" fill-rule="nonzero"/><g clip-path="url(#5e50782fed)"><path fill="#ffffff" d="M 523.9375 453.273438 L 539.992188 453.273438 L 539.992188 469.328125 L 523.9375 469.328125 Z M 523.9375 453.273438 " fill-opacity="1" fill-rule="nonzero"/></g><path fill="#ffffff" d="M 443.679688 373.015625 L 459.730469 373.015625 L 459.730469 389.066406 L 443.679688 389.066406 Z M 443.679688 373.015625 " fill-opacity="1" fill-rule="nonzero"/><path fill="#ffffff" d="M 383.640625 404.578125 L 394.988281 393.226562 L 406.339844 404.578125 L 394.988281 415.929688 Z M 383.640625 404.578125 " fill-opacity="1" fill-rule="nonzero"/><path fill="#ffffff" d="M 497.101562 518.019531 L 508.453125 506.671875 L 519.804688 518.023438 L 508.449219 529.375 Z M 497.101562 518.019531 " fill-opacity="1" fill-rule="nonzero"/><path fill="#ffffff" d="M 383.628906 518.058594 L 394.980469 506.707031 L 406.328125 518.058594 L 394.980469 529.40625 Z M 383.628906 518.058594 " fill-opacity="1" fill-rule="nonzero"/><path fill="#ffffff" d="M 497.113281 404.589844 L 508.460938 393.242188 L 519.8125 404.589844 L 508.460938 415.941406 Z M 497.113281 404.589844 " fill-opacity="1" fill-rule="nonzero"/><g clip-path="url(#c319cf0aaf)"><path fill="#ffffff" d="M 487.097656 417.640625 C 486.347656 417.03125 485.582031 416.445312 484.804688 415.878906 C 484.023438 415.308594 483.226562 414.761719 482.417969 414.238281 C 481.609375 413.710938 480.789062 413.203125 479.953125 412.71875 C 479.121094 412.234375 478.273438 411.773438 477.414062 411.332031 C 476.554688 410.890625 475.6875 410.472656 474.808594 410.078125 C 473.925781 409.683594 473.039062 409.308594 472.136719 408.960938 C 471.238281 408.609375 470.332031 408.28125 469.414062 407.980469 C 468.5 407.675781 467.574219 407.398438 466.644531 407.140625 C 465.714844 406.886719 464.777344 406.65625 463.835938 406.445312 C 462.894531 406.238281 461.945312 406.058594 460.996094 405.898438 C 460.042969 405.738281 459.085938 405.605469 458.128906 405.496094 C 457.167969 405.386719 456.207031 405.300781 455.246094 405.242188 C 454.28125 405.183594 453.316406 405.148438 452.351562 405.136719 C 451.386719 405.128906 450.425781 405.140625 449.460938 405.183594 C 448.496094 405.222656 447.53125 405.285156 446.570312 405.375 C 445.613281 405.464844 444.652344 405.578125 443.699219 405.714844 C 442.742188 405.855469 441.792969 406.019531 440.847656 406.207031 C 439.898438 406.394531 438.957031 406.605469 438.023438 406.839844 C 437.085938 407.078125 436.15625 407.335938 435.234375 407.621094 C 434.3125 407.902344 433.398438 408.210938 432.492188 408.542969 C 431.585938 408.875 430.6875 409.226562 429.800781 409.605469 C 428.914062 409.980469 428.035156 410.382812 427.167969 410.804688 C 426.300781 411.226562 425.441406 411.671875 424.597656 412.136719 C 423.753906 412.605469 422.921875 413.09375 422.101562 413.601562 C 421.28125 414.109375 420.476562 414.640625 419.683594 415.191406 C 418.890625 415.742188 418.113281 416.3125 417.351562 416.90625 C 416.589844 417.496094 415.84375 418.105469 415.109375 418.734375 C 414.378906 419.367188 413.664062 420.011719 412.964844 420.679688 C 412.269531 421.347656 411.589844 422.03125 410.925781 422.730469 C 410.261719 423.433594 409.617188 424.152344 408.992188 424.886719 C 408.367188 425.621094 407.761719 426.371094 407.171875 427.136719 C 406.585938 427.902344 406.019531 428.683594 405.472656 429.476562 C 404.925781 430.273438 404.398438 431.082031 403.894531 431.902344 C 403.390625 432.726562 402.90625 433.558594 402.445312 434.40625 C 401.980469 435.253906 401.542969 436.113281 401.125 436.984375 C 400.707031 437.851562 400.308594 438.730469 399.9375 439.621094 C 399.566406 440.511719 399.214844 441.410156 398.890625 442.320312 C 398.5625 443.226562 398.261719 444.144531 397.980469 445.066406 C 397.703125 445.992188 397.445312 446.921875 397.214844 447.859375 C 396.984375 448.796875 396.777344 449.738281 396.59375 450.683594 C 396.414062 451.632812 396.253906 452.585938 396.121094 453.539062 C 395.988281 454.496094 395.878906 455.453125 395.792969 456.414062 C 395.710938 457.378906 395.652344 458.339844 395.617188 459.304688 C 395.582031 460.269531 395.570312 461.234375 395.585938 462.199219 C 395.601562 463.164062 395.640625 464.125 395.707031 465.089844 C 395.773438 466.050781 395.859375 467.011719 395.976562 467.972656 C 396.089844 468.929688 396.226562 469.882812 396.390625 470.835938 C 396.554688 471.785156 396.742188 472.730469 396.957031 473.671875 C 397.167969 474.613281 397.402344 475.550781 397.664062 476.480469 C 397.925781 477.410156 398.210938 478.332031 398.515625 479.246094 C 398.824219 480.160156 399.15625 481.066406 399.511719 481.960938 C 399.867188 482.859375 400.242188 483.75 400.644531 484.625 C 401.042969 485.503906 401.464844 486.371094 401.910156 487.226562 C 402.355469 488.082031 402.824219 488.929688 403.3125 489.761719 C 403.800781 490.59375 404.308594 491.410156 404.839844 492.21875 C 405.371094 493.023438 405.921875 493.816406 406.496094 494.59375 C 407.066406 495.371094 407.65625 496.132812 408.269531 496.878906 C 408.878906 497.625 409.507812 498.355469 410.15625 499.070312 C 410.804688 499.785156 411.472656 500.484375 412.15625 501.164062 C 412.839844 501.84375 413.542969 502.507812 414.261719 503.152344 C 414.980469 503.792969 415.714844 504.417969 416.464844 505.027344 C 417.214844 505.632812 417.980469 506.21875 418.761719 506.785156 C 419.542969 507.351562 420.339844 507.898438 421.148438 508.425781 C 421.957031 508.949219 422.777344 509.457031 423.613281 509.9375 L 423.613281 529.523438 C 423.613281 530.441406 423.660156 531.359375 423.75 532.277344 C 423.839844 533.191406 423.972656 534.101562 424.152344 535.003906 C 424.332031 535.90625 424.554688 536.796875 424.824219 537.675781 C 425.089844 538.558594 425.398438 539.421875 425.75 540.273438 C 426.105469 541.121094 426.496094 541.953125 426.929688 542.765625 C 427.363281 543.574219 427.835938 544.363281 428.347656 545.128906 C 428.859375 545.894531 429.40625 546.632812 429.988281 547.34375 C 430.574219 548.054688 431.191406 548.734375 431.839844 549.386719 C 432.492188 550.035156 433.171875 550.652344 433.882812 551.238281 C 434.59375 551.820312 435.332031 552.367188 436.097656 552.878906 C 436.863281 553.390625 437.652344 553.863281 438.460938 554.296875 C 439.273438 554.730469 440.105469 555.121094 440.953125 555.476562 C 441.804688 555.828125 442.667969 556.136719 443.550781 556.402344 C 444.429688 556.671875 445.320312 556.894531 446.222656 557.074219 C 447.125 557.253906 448.035156 557.386719 448.953125 557.476562 C 449.867188 557.566406 450.785156 557.613281 451.703125 557.613281 C 452.625 557.613281 453.542969 557.566406 454.457031 557.476562 C 455.375 557.386719 456.28125 557.253906 457.183594 557.074219 C 458.085938 556.894531 458.980469 556.671875 459.859375 556.402344 C 460.738281 556.136719 461.605469 555.828125 462.453125 555.476562 C 463.304688 555.121094 464.136719 554.730469 464.945312 554.296875 C 465.757812 553.863281 466.546875 553.390625 467.3125 552.878906 C 468.078125 552.367188 468.8125 551.820312 469.527344 551.238281 C 470.238281 550.652344 470.917969 550.035156 471.566406 549.386719 C 472.21875 548.734375 472.835938 548.054688 473.417969 547.34375 C 474.003906 546.632812 474.550781 545.894531 475.0625 545.128906 C 475.574219 544.363281 476.046875 543.574219 476.480469 542.765625 C 476.914062 541.953125 477.304688 541.121094 477.65625 540.273438 C 478.007812 539.421875 478.320312 538.558594 478.585938 537.675781 C 478.851562 536.796875 479.078125 535.90625 479.257812 535.003906 C 479.4375 534.101562 479.570312 533.191406 479.660156 532.277344 C 479.75 531.359375 479.796875 530.441406 479.796875 529.523438 L 479.796875 509.9375 C 480.777344 509.371094 481.742188 508.777344 482.6875 508.152344 C 483.632812 507.527344 484.558594 506.871094 485.464844 506.191406 C 486.371094 505.511719 487.257812 504.800781 488.121094 504.066406 C 488.984375 503.332031 489.824219 502.574219 490.644531 501.785156 C 491.460938 501 492.253906 500.191406 493.023438 499.359375 C 493.789062 498.523438 494.535156 497.667969 495.25 496.789062 C 495.96875 495.910156 496.65625 495.011719 497.320312 494.089844 C 497.980469 493.171875 498.613281 492.230469 499.21875 491.273438 C 499.824219 490.3125 500.402344 489.335938 500.945312 488.34375 C 501.492188 487.351562 502.007812 486.339844 502.496094 485.316406 C 502.980469 484.292969 503.433594 483.253906 503.855469 482.199219 C 504.277344 481.148438 504.667969 480.085938 505.027344 479.007812 C 505.382812 477.933594 505.707031 476.847656 506 475.75 C 506.292969 474.65625 506.550781 473.550781 506.777344 472.441406 C 507 471.328125 507.191406 470.210938 507.351562 469.089844 C 507.507812 467.96875 507.632812 466.839844 507.722656 465.710938 C 507.8125 464.578125 507.867188 463.449219 507.886719 462.3125 C 507.90625 461.179688 507.894531 460.046875 507.847656 458.914062 C 507.800781 457.78125 507.71875 456.652344 507.601562 455.523438 C 507.484375 454.394531 507.335938 453.273438 507.152344 452.152344 C 506.964844 451.035156 506.75 449.921875 506.496094 448.816406 C 506.246094 447.710938 505.960938 446.613281 505.644531 445.527344 C 505.324219 444.4375 504.972656 443.359375 504.589844 442.292969 C 504.207031 441.226562 503.792969 440.171875 503.347656 439.128906 C 502.898438 438.085938 502.421875 437.058594 501.910156 436.046875 C 501.402344 435.03125 500.863281 434.035156 500.292969 433.054688 C 499.722656 432.074219 499.125 431.113281 498.496094 430.167969 C 497.871094 429.222656 497.214844 428.300781 496.53125 427.394531 C 495.847656 426.492188 495.136719 425.609375 494.398438 424.746094 C 493.660156 423.886719 492.898438 423.046875 492.109375 422.230469 C 491.320312 421.417969 490.511719 420.625 489.675781 419.859375 C 488.839844 419.09375 487.980469 418.355469 487.097656 417.640625 Z M 463.742188 529.523438 C 463.742188 530.3125 463.667969 531.09375 463.511719 531.871094 C 463.359375 532.644531 463.128906 533.398438 462.828125 534.128906 C 462.523438 534.859375 462.152344 535.554688 461.714844 536.210938 C 461.277344 536.867188 460.777344 537.476562 460.21875 538.035156 C 459.660156 538.59375 459.050781 539.09375 458.394531 539.53125 C 457.734375 539.972656 457.042969 540.34375 456.3125 540.644531 C 455.582031 540.949219 454.828125 541.175781 454.054688 541.328125 C 453.277344 541.484375 452.496094 541.5625 451.703125 541.5625 C 450.914062 541.5625 450.132812 541.484375 449.355469 541.328125 C 448.582031 541.175781 447.828125 540.949219 447.097656 540.644531 C 446.367188 540.34375 445.671875 539.972656 445.015625 539.53125 C 444.359375 539.09375 443.75 538.59375 443.191406 538.035156 C 442.632812 537.476562 442.132812 536.867188 441.695312 536.210938 C 441.253906 535.554688 440.882812 534.859375 440.582031 534.128906 C 440.28125 533.398438 440.050781 532.644531 439.898438 531.871094 C 439.742188 531.09375 439.664062 530.3125 439.664062 529.523438 L 439.664062 525.507812 L 463.742188 525.507812 Z M 468.398438 497.417969 C 467.703125 497.742188 467.066406 498.15625 466.488281 498.660156 C 465.910156 499.164062 465.414062 499.742188 465 500.386719 C 464.589844 501.035156 464.277344 501.726562 464.0625 502.464844 C 463.847656 503.203125 463.742188 503.953125 463.742188 504.722656 L 463.742188 509.457031 L 439.664062 509.457031 L 439.664062 505.042969 C 439.667969 504.273438 439.5625 503.523438 439.347656 502.785156 C 439.132812 502.046875 438.820312 501.355469 438.40625 500.710938 C 437.996094 500.0625 437.5 499.484375 436.921875 498.980469 C 436.34375 498.476562 435.707031 498.0625 435.011719 497.738281 C 433.117188 496.867188 431.300781 495.851562 429.566406 494.695312 C 427.832031 493.539062 426.195312 492.257812 424.660156 490.847656 C 423.121094 489.433594 421.707031 487.914062 420.40625 486.28125 C 419.109375 484.648438 417.945312 482.925781 416.914062 481.113281 C 415.882812 479.300781 415 477.417969 414.265625 475.46875 C 413.527344 473.515625 412.945312 471.519531 412.523438 469.480469 C 412.097656 467.4375 411.832031 465.375 411.726562 463.292969 C 411.625 461.210938 411.683594 459.132812 411.902344 457.058594 C 412.121094 454.984375 412.503906 452.941406 413.039062 450.925781 C 413.578125 448.910156 414.269531 446.949219 415.117188 445.042969 C 415.960938 443.136719 416.949219 441.304688 418.078125 439.554688 C 419.207031 437.800781 420.464844 436.144531 421.851562 434.589844 C 423.242188 433.03125 424.742188 431.59375 426.351562 430.269531 C 427.964844 428.945312 429.671875 427.757812 431.46875 426.699219 C 433.265625 425.644531 435.132812 424.730469 437.074219 423.964844 C 439.015625 423.199219 441 422.589844 443.035156 422.132812 C 444.230469 421.871094 445.4375 421.660156 446.652344 421.503906 C 447.867188 421.351562 449.085938 421.25 450.308594 421.207031 C 451.53125 421.164062 452.753906 421.179688 453.976562 421.246094 C 455.199219 421.316406 456.414062 421.441406 457.625 421.621094 C 458.835938 421.800781 460.039062 422.035156 461.226562 422.328125 C 462.417969 422.617188 463.589844 422.960938 464.746094 423.359375 C 465.90625 423.753906 467.042969 424.203125 468.160156 424.707031 C 469.277344 425.207031 470.367188 425.757812 471.433594 426.359375 C 472.5 426.960938 473.539062 427.609375 474.542969 428.308594 C 475.550781 429.003906 476.523438 429.746094 477.464844 430.53125 C 478.402344 431.316406 479.304688 432.140625 480.167969 433.011719 C 481.03125 433.878906 481.851562 434.785156 482.632812 435.726562 C 483.414062 436.667969 484.148438 437.644531 484.839844 438.65625 C 485.53125 439.667969 486.175781 440.707031 486.773438 441.777344 C 487.367188 442.847656 487.914062 443.941406 488.410156 445.058594 C 488.90625 446.179688 489.347656 447.320312 489.742188 448.476562 C 490.132812 449.636719 490.46875 450.8125 490.753906 452.003906 C 491.039062 453.195312 491.265625 454.398438 491.441406 455.609375 C 491.613281 456.820312 491.734375 458.039062 491.796875 459.261719 C 491.859375 460.484375 491.867188 461.707031 491.816406 462.929688 C 491.765625 464.152344 491.660156 465.371094 491.5 466.585938 C 491.339844 467.796875 491.125 469 490.851562 470.195312 C 490.582031 471.390625 490.257812 472.570312 489.878906 473.734375 C 489.5 474.898438 489.070312 476.042969 488.585938 477.164062 C 488.101562 478.289062 487.566406 479.390625 486.984375 480.464844 C 486.398438 481.542969 485.765625 482.589844 485.085938 483.605469 C 484.40625 484.625 483.679688 485.609375 482.910156 486.5625 C 482.140625 487.511719 481.328125 488.425781 480.476562 489.304688 C 479.621094 490.183594 478.730469 491.019531 477.796875 491.8125 C 476.867188 492.609375 475.902344 493.359375 474.902344 494.066406 C 473.90625 494.777344 472.875 495.4375 471.816406 496.050781 C 470.757812 496.660156 469.671875 497.226562 468.558594 497.738281 Z M 468.398438 497.417969 " fill-opacity="1" fill-rule="nonzero"/></g><path fill="#ffffff" d="M 227.457031 323.332031 C 226.96875 325.058594 226.847656 326.808594 227.097656 328.582031 C 227.351562 330.359375 227.953125 332.007812 228.902344 333.527344 L 237.972656 348.9375 C 238.429688 349.6875 238.957031 350.390625 239.550781 351.042969 C 240.144531 351.695312 240.792969 352.285156 241.5 352.8125 C 242.207031 353.339844 242.957031 353.792969 243.75 354.175781 C 244.542969 354.5625 245.367188 354.867188 246.21875 355.09375 C 247.070312 355.316406 247.9375 355.460938 248.816406 355.519531 C 249.695312 355.582031 250.570312 355.558594 251.445312 355.449219 C 252.320312 355.339844 253.179688 355.152344 254.015625 354.878906 C 254.855469 354.609375 255.660156 354.257812 256.433594 353.832031 L 258.519531 352.628906 C 261.648438 354.832031 264.96875 356.703125 268.472656 358.246094 L 268.472656 360.011719 C 268.507812 360.882812 268.625 361.742188 268.828125 362.589844 C 269.027344 363.4375 269.308594 364.257812 269.667969 365.050781 C 270.027344 365.84375 270.460938 366.59375 270.964844 367.304688 C 271.46875 368.015625 272.035156 368.667969 272.664062 369.269531 C 273.296875 369.871094 273.976562 370.40625 274.710938 370.875 C 275.445312 371.34375 276.214844 371.742188 277.027344 372.0625 C 277.835938 372.382812 278.667969 372.621094 279.523438 372.78125 C 280.378906 372.945312 281.242188 373.019531 282.113281 373.015625 L 300.253906 373.015625 C 301.140625 373.019531 302.019531 372.9375 302.890625 372.773438 C 303.761719 372.605469 304.609375 372.355469 305.433594 372.019531 C 306.253906 371.6875 307.035156 371.277344 307.777344 370.789062 C 308.519531 370.304688 309.207031 369.75 309.839844 369.128906 C 310.472656 368.503906 311.039062 367.828125 311.539062 367.09375 C 312.039062 366.363281 312.464844 365.585938 312.8125 364.769531 C 313.160156 363.957031 313.425781 363.113281 313.609375 362.246094 C 313.789062 361.375 313.886719 360.5 313.898438 359.613281 L 313.898438 357.84375 C 317.410156 356.320312 320.730469 354.449219 323.851562 352.226562 L 325.9375 353.429688 C 326.707031 353.859375 327.511719 354.207031 328.351562 354.476562 C 329.191406 354.75 330.046875 354.941406 330.921875 355.046875 C 331.796875 355.15625 332.671875 355.179688 333.554688 355.121094 C 334.433594 355.058594 335.296875 354.917969 336.148438 354.691406 C 337.003906 354.464844 337.824219 354.160156 338.617188 353.777344 C 339.414062 353.394531 340.164062 352.9375 340.867188 352.410156 C 341.574219 351.882812 342.226562 351.292969 342.816406 350.640625 C 343.410156 349.988281 343.9375 349.289062 344.398438 348.535156 L 353.464844 333.527344 C 354.417969 332.007812 355.019531 330.359375 355.269531 328.582031 C 355.519531 326.808594 355.402344 325.058594 354.910156 323.332031 C 354.410156 321.613281 353.597656 320.058594 352.46875 318.664062 C 351.34375 317.273438 349.988281 316.152344 348.410156 315.308594 L 346.722656 314.34375 C 346.722656 312.660156 346.722656 310.894531 346.722656 309.128906 C 346.722656 307.363281 346.722656 305.597656 346.722656 303.910156 L 348.410156 302.949219 C 349.988281 302.101562 351.34375 300.980469 352.46875 299.589844 C 353.597656 298.199219 354.410156 296.640625 354.910156 294.921875 C 355.402344 293.195312 355.519531 291.445312 355.269531 289.671875 C 355.019531 287.898438 354.417969 286.25 353.464844 284.730469 L 344.398438 269.71875 C 343.9375 268.96875 343.410156 268.265625 342.816406 267.613281 C 342.226562 266.960938 341.574219 266.371094 340.867188 265.84375 C 340.164062 265.316406 339.414062 264.863281 338.617188 264.480469 C 337.824219 264.09375 337.003906 263.789062 336.148438 263.566406 C 335.296875 263.339844 334.433594 263.195312 333.554688 263.136719 C 332.671875 263.074219 331.796875 263.097656 330.921875 263.207031 C 330.046875 263.316406 329.191406 263.503906 328.351562 263.777344 C 327.511719 264.046875 326.707031 264.398438 325.9375 264.824219 L 323.851562 266.027344 C 320.71875 263.824219 317.402344 261.953125 313.898438 260.410156 L 313.898438 258.644531 C 313.929688 257.730469 313.871094 256.820312 313.71875 255.917969 C 313.570312 255.019531 313.328125 254.140625 313 253.285156 C 312.671875 252.433594 312.261719 251.621094 311.765625 250.851562 C 311.273438 250.082031 310.710938 249.367188 310.070312 248.710938 C 309.433594 248.054688 308.738281 247.46875 307.980469 246.953125 C 307.226562 246.4375 306.425781 246.003906 305.582031 245.652344 C 304.738281 245.296875 303.867188 245.03125 302.972656 244.855469 C 302.074219 244.679688 301.167969 244.59375 300.253906 244.597656 L 282.113281 244.597656 C 281.226562 244.59375 280.347656 244.675781 279.476562 244.839844 C 278.605469 245.007812 277.757812 245.257812 276.9375 245.59375 C 276.113281 245.925781 275.332031 246.335938 274.589844 246.824219 C 273.847656 247.308594 273.160156 247.863281 272.527344 248.484375 C 271.894531 249.109375 271.328125 249.785156 270.828125 250.519531 C 270.328125 251.25 269.90625 252.027344 269.558594 252.84375 C 269.207031 253.65625 268.941406 254.5 268.761719 255.367188 C 268.578125 256.238281 268.480469 257.113281 268.472656 258 L 268.472656 259.769531 C 264.957031 261.292969 261.640625 263.164062 258.519531 265.386719 L 256.433594 264.183594 C 255.660156 263.753906 254.855469 263.40625 254.015625 263.136719 C 253.179688 262.863281 252.320312 262.671875 251.445312 262.566406 C 250.570312 262.457031 249.695312 262.433594 248.816406 262.492188 C 247.9375 262.554688 247.070312 262.695312 246.21875 262.921875 C 245.367188 263.148438 244.542969 263.453125 243.75 263.835938 C 242.957031 264.21875 242.207031 264.675781 241.5 265.203125 C 240.792969 265.730469 240.144531 266.320312 239.550781 266.972656 C 238.957031 267.625 238.429688 268.324219 237.972656 269.078125 L 228.902344 284.085938 C 227.953125 285.605469 227.351562 287.253906 227.097656 289.03125 C 226.847656 290.804688 226.96875 292.554688 227.457031 294.28125 C 227.957031 296 228.769531 297.554688 229.898438 298.949219 C 231.027344 300.339844 232.378906 301.460938 233.957031 302.304688 L 235.644531 303.269531 C 235.644531 304.953125 235.644531 306.71875 235.644531 308.484375 C 235.644531 310.25 235.644531 312.015625 235.644531 313.703125 L 233.957031 314.664062 C 232.308594 315.585938 230.917969 316.800781 229.789062 318.308594 C 228.65625 319.820312 227.878906 321.492188 227.457031 323.332031 Z M 251.535156 308.808594 C 251.535156 307.121094 251.535156 305.4375 251.535156 303.75 C 251.625 303.089844 251.664062 302.421875 251.652344 301.757812 C 251.640625 301.089844 251.578125 300.425781 251.464844 299.765625 C 251.351562 299.109375 251.191406 298.464844 250.980469 297.828125 C 250.769531 297.195312 250.515625 296.582031 250.210938 295.984375 C 249.910156 295.390625 249.5625 294.820312 249.175781 294.28125 C 248.785156 293.738281 248.359375 293.226562 247.890625 292.75 C 247.425781 292.269531 246.925781 291.828125 246.394531 291.425781 C 245.859375 291.023438 245.300781 290.664062 244.714844 290.347656 L 243.910156 289.867188 L 250.25 279.269531 L 251.695312 280.074219 C 252.894531 280.742188 254.160156 281.230469 255.496094 281.53125 C 256.835938 281.832031 258.1875 281.9375 259.554688 281.84375 C 260.925781 281.75 262.25 281.464844 263.535156 280.988281 C 264.820312 280.507812 266.011719 279.855469 267.105469 279.03125 C 269.808594 277.019531 272.726562 275.386719 275.855469 274.132812 C 276.488281 273.894531 277.097656 273.609375 277.691406 273.277344 C 278.28125 272.945312 278.84375 272.570312 279.375 272.152344 C 279.910156 271.738281 280.410156 271.28125 280.878906 270.792969 C 281.34375 270.300781 281.769531 269.777344 282.160156 269.222656 C 282.546875 268.667969 282.890625 268.085938 283.191406 267.480469 C 283.492188 266.871094 283.746094 266.246094 283.953125 265.601562 C 284.160156 264.957031 284.320312 264.300781 284.429688 263.632812 C 284.535156 262.964844 284.59375 262.289062 284.601562 261.613281 L 284.601562 260.652344 L 297.925781 260.652344 L 297.925781 261.613281 C 297.933594 262.289062 297.992188 262.964844 298.101562 263.632812 C 298.210938 264.300781 298.367188 264.957031 298.574219 265.601562 C 298.78125 266.246094 299.035156 266.871094 299.335938 267.480469 C 299.636719 268.085938 299.984375 268.667969 300.371094 269.222656 C 300.757812 269.777344 301.183594 270.300781 301.652344 270.792969 C 302.117188 271.28125 302.617188 271.738281 303.152344 272.152344 C 303.6875 272.570312 304.25 272.945312 304.839844 273.277344 C 305.429688 273.609375 306.042969 273.894531 306.675781 274.132812 C 309.820312 275.402344 312.761719 277.035156 315.503906 279.03125 C 316.574219 279.824219 317.734375 280.453125 318.984375 280.914062 C 320.234375 281.375 321.523438 281.652344 322.855469 281.746094 C 324.183594 281.839844 325.5 281.742188 326.804688 281.457031 C 328.105469 281.171875 329.339844 280.710938 330.511719 280.074219 L 331.957031 279.269531 L 338.296875 289.863281 L 337.496094 290.347656 C 336.90625 290.667969 336.347656 291.027344 335.8125 291.429688 C 335.28125 291.832031 334.78125 292.273438 334.3125 292.75 C 333.847656 293.230469 333.417969 293.738281 333.027344 294.28125 C 332.632812 294.824219 332.285156 295.390625 331.980469 295.984375 C 331.675781 296.582031 331.414062 297.195312 331.199219 297.828125 C 330.984375 298.460938 330.820312 299.105469 330.703125 299.765625 C 330.585938 300.421875 330.515625 301.085938 330.496094 301.753906 C 330.480469 302.421875 330.511719 303.085938 330.59375 303.75 C 330.953125 305.417969 331.195312 307.105469 331.3125 308.808594 C 331.3125 310.492188 331.3125 312.175781 331.3125 313.863281 C 331.226562 314.523438 331.1875 315.191406 331.199219 315.855469 C 331.210938 316.523438 331.273438 317.1875 331.386719 317.847656 C 331.496094 318.503906 331.660156 319.148438 331.867188 319.785156 C 332.078125 320.417969 332.335938 321.03125 332.636719 321.628906 C 332.941406 322.222656 333.285156 322.792969 333.675781 323.332031 C 334.066406 323.875 334.492188 324.386719 334.957031 324.863281 C 335.425781 325.34375 335.925781 325.785156 336.457031 326.1875 C 336.988281 326.589844 337.550781 326.949219 338.136719 327.265625 L 338.9375 327.75 L 332.597656 338.34375 L 331.152344 337.539062 C 329.976562 336.902344 328.734375 336.441406 327.425781 336.160156 C 326.117188 335.875 324.792969 335.78125 323.457031 335.871094 C 322.121094 335.964844 320.824219 336.242188 319.570312 336.703125 C 318.3125 337.164062 317.144531 337.789062 316.066406 338.582031 C 313.359375 340.59375 310.445312 342.226562 307.316406 343.480469 C 306.683594 343.71875 306.070312 344.003906 305.480469 344.335938 C 304.890625 344.667969 304.328125 345.042969 303.792969 345.460938 C 303.261719 345.875 302.761719 346.332031 302.292969 346.820312 C 301.828125 347.3125 301.402344 347.835938 301.011719 348.390625 C 300.625 348.945312 300.28125 349.527344 299.980469 350.132812 C 299.679688 350.742188 299.425781 351.367188 299.21875 352.011719 C 299.011719 352.65625 298.851562 353.3125 298.742188 353.980469 C 298.632812 354.648438 298.578125 355.324219 298.566406 356 L 298.566406 356.960938 L 284.523438 356.960938 L 284.523438 356 C 284.515625 355.324219 284.457031 354.648438 284.347656 353.980469 C 284.238281 353.3125 284.082031 352.65625 283.875 352.011719 C 283.667969 351.367188 283.414062 350.742188 283.113281 350.132812 C 282.8125 349.527344 282.464844 348.945312 282.078125 348.390625 C 281.691406 347.835938 281.261719 347.3125 280.796875 346.820312 C 280.332031 346.332031 279.832031 345.875 279.296875 345.460938 C 278.761719 345.042969 278.199219 344.667969 277.609375 344.335938 C 277.019531 344.003906 276.40625 343.71875 275.773438 343.480469 C 272.628906 342.210938 269.6875 340.578125 266.945312 338.582031 C 265.875 337.789062 264.714844 337.160156 263.464844 336.699219 C 262.214844 336.238281 260.921875 335.960938 259.59375 335.867188 C 258.265625 335.773438 256.949219 335.871094 255.644531 336.15625 C 254.34375 336.441406 253.105469 336.902344 251.9375 337.539062 L 250.492188 338.34375 L 244.152344 327.746094 L 244.953125 327.265625 C 245.542969 326.945312 246.101562 326.585938 246.636719 326.183594 C 247.167969 325.78125 247.667969 325.339844 248.136719 324.863281 C 248.601562 324.382812 249.03125 323.875 249.421875 323.332031 C 249.8125 322.789062 250.164062 322.222656 250.46875 321.628906 C 250.773438 321.03125 251.035156 320.417969 251.25 319.785156 C 251.464844 319.152344 251.628906 318.507812 251.746094 317.847656 C 251.863281 317.191406 251.933594 316.527344 251.949219 315.859375 C 251.96875 315.191406 251.9375 314.527344 251.855469 313.863281 C 251.601562 312.1875 251.46875 310.5 251.457031 308.808594 Z M 251.535156 308.808594 " fill-opacity="1" fill-rule="nonzero"/><path fill="#ffffff" d="M 291.183594 334.890625 C 292.039062 334.890625 292.890625 334.847656 293.742188 334.765625 C 294.589844 334.683594 295.433594 334.558594 296.273438 334.390625 C 297.109375 334.222656 297.9375 334.015625 298.757812 333.769531 C 299.574219 333.519531 300.378906 333.234375 301.167969 332.90625 C 301.957031 332.578125 302.726562 332.214844 303.480469 331.8125 C 304.234375 331.410156 304.964844 330.96875 305.675781 330.496094 C 306.386719 330.019531 307.070312 329.511719 307.730469 328.96875 C 308.394531 328.429688 309.023438 327.855469 309.628906 327.25 C 310.234375 326.648438 310.804688 326.015625 311.347656 325.355469 C 311.890625 324.695312 312.398438 324.007812 312.871094 323.296875 C 313.347656 322.589844 313.785156 321.855469 314.1875 321.101562 C 314.589844 320.347656 314.957031 319.578125 315.285156 318.789062 C 315.609375 318 315.898438 317.195312 316.144531 316.378906 C 316.394531 315.5625 316.601562 314.734375 316.769531 313.894531 C 316.933594 313.058594 317.058594 312.214844 317.144531 311.363281 C 317.226562 310.511719 317.269531 309.660156 317.269531 308.808594 C 317.269531 307.953125 317.226562 307.101562 317.144531 306.25 C 317.058594 305.398438 316.933594 304.554688 316.769531 303.71875 C 316.601562 302.878906 316.394531 302.050781 316.144531 301.234375 C 315.898438 300.417969 315.609375 299.613281 315.285156 298.824219 C 314.957031 298.035156 314.589844 297.265625 314.1875 296.511719 C 313.785156 295.757812 313.347656 295.023438 312.871094 294.316406 C 312.398438 293.605469 311.890625 292.917969 311.347656 292.257812 C 310.804688 291.597656 310.234375 290.964844 309.628906 290.363281 C 309.023438 289.757812 308.394531 289.183594 307.730469 288.644531 C 307.070312 288.101562 306.386719 287.59375 305.675781 287.117188 C 304.964844 286.644531 304.234375 286.203125 303.480469 285.800781 C 302.726562 285.398438 301.957031 285.035156 301.167969 284.707031 C 300.378906 284.378906 299.574219 284.09375 298.757812 283.84375 C 297.9375 283.597656 297.109375 283.390625 296.273438 283.222656 C 295.433594 283.054688 294.589844 282.929688 293.742188 282.847656 C 292.890625 282.765625 292.039062 282.722656 291.183594 282.722656 C 290.328125 282.722656 289.476562 282.765625 288.628906 282.847656 C 287.777344 282.929688 286.933594 283.058594 286.09375 283.222656 C 285.257812 283.390625 284.429688 283.597656 283.613281 283.84375 C 282.792969 284.09375 281.992188 284.378906 281.203125 284.707031 C 280.414062 285.035156 279.640625 285.398438 278.886719 285.800781 C 278.132812 286.203125 277.402344 286.644531 276.691406 287.117188 C 275.980469 287.59375 275.296875 288.101562 274.636719 288.644531 C 273.976562 289.183594 273.34375 289.757812 272.738281 290.363281 C 272.136719 290.964844 271.5625 291.597656 271.019531 292.257812 C 270.480469 292.917969 269.96875 293.605469 269.496094 294.316406 C 269.019531 295.023438 268.582031 295.757812 268.179688 296.511719 C 267.777344 297.265625 267.414062 298.035156 267.085938 298.824219 C 266.757812 299.613281 266.472656 300.417969 266.222656 301.234375 C 265.976562 302.050781 265.769531 302.878906 265.601562 303.71875 C 265.433594 304.554688 265.308594 305.398438 265.226562 306.25 C 265.140625 307.101562 265.101562 307.953125 265.101562 308.808594 C 265.101562 309.660156 265.148438 310.511719 265.234375 311.359375 C 265.320312 312.210938 265.445312 313.054688 265.613281 313.890625 C 265.78125 314.726562 265.992188 315.554688 266.242188 316.371094 C 266.488281 317.1875 266.777344 317.988281 267.105469 318.777344 C 267.433594 319.5625 267.800781 320.335938 268.203125 321.085938 C 268.605469 321.839844 269.046875 322.570312 269.519531 323.28125 C 269.996094 323.988281 270.503906 324.671875 271.046875 325.332031 C 271.585938 325.992188 272.160156 326.625 272.761719 327.226562 C 273.367188 327.832031 274 328.402344 274.65625 328.945312 C 275.316406 329.488281 276.003906 329.996094 276.710938 330.46875 C 277.421875 330.945312 278.152344 331.382812 278.902344 331.789062 C 279.65625 332.191406 280.425781 332.554688 281.214844 332.882812 C 282.003906 333.210938 282.804688 333.5 283.621094 333.75 C 284.4375 334 285.265625 334.207031 286.101562 334.375 C 286.9375 334.546875 287.78125 334.671875 288.628906 334.757812 C 289.480469 334.84375 290.332031 334.886719 291.183594 334.890625 Z M 291.183594 298.773438 C 291.84375 298.773438 292.496094 298.839844 293.140625 298.96875 C 293.789062 299.09375 294.414062 299.285156 295.023438 299.539062 C 295.632812 299.789062 296.210938 300.097656 296.757812 300.464844 C 297.304688 300.832031 297.8125 301.246094 298.277344 301.710938 C 298.746094 302.179688 299.160156 302.683594 299.527344 303.234375 C 299.890625 303.78125 300.199219 304.359375 300.453125 304.96875 C 300.707031 305.574219 300.894531 306.203125 301.023438 306.847656 C 301.152344 307.496094 301.21875 308.148438 301.21875 308.808594 C 301.21875 309.464844 301.152344 310.117188 301.023438 310.765625 C 300.894531 311.410156 300.707031 312.039062 300.453125 312.644531 C 300.199219 313.253906 299.890625 313.832031 299.527344 314.378906 C 299.160156 314.929688 298.746094 315.433594 298.277344 315.902344 C 297.8125 316.367188 297.304688 316.78125 296.757812 317.148438 C 296.210938 317.515625 295.632812 317.824219 295.023438 318.074219 C 294.414062 318.328125 293.789062 318.519531 293.140625 318.644531 C 292.496094 318.773438 291.84375 318.839844 291.183594 318.839844 C 290.527344 318.839844 289.875 318.773438 289.226562 318.644531 C 288.582031 318.519531 287.953125 318.328125 287.34375 318.074219 C 286.738281 317.824219 286.160156 317.515625 285.609375 317.148438 C 285.0625 316.78125 284.554688 316.367188 284.089844 315.902344 C 283.625 315.433594 283.207031 314.929688 282.84375 314.378906 C 282.476562 313.832031 282.167969 313.253906 281.914062 312.644531 C 281.664062 312.039062 281.472656 311.410156 281.34375 310.765625 C 281.214844 310.117188 281.152344 309.464844 281.152344 308.808594 C 281.152344 308.148438 281.214844 307.496094 281.34375 306.847656 C 281.472656 306.203125 281.664062 305.574219 281.914062 304.96875 C 282.167969 304.359375 282.476562 303.78125 282.84375 303.234375 C 283.207031 302.683594 283.625 302.179688 284.089844 301.710938 C 284.554688 301.246094 285.0625 300.832031 285.609375 300.464844 C 286.160156 300.097656 286.738281 299.789062 287.34375 299.539062 C 287.953125 299.285156 288.582031 299.09375 289.226562 298.96875 C 289.875 298.839844 290.527344 298.773438 291.183594 298.773438 Z M 291.183594 298.773438 " fill-opacity="1" fill-rule="nonzero"/><path fill="#ffffff" d="M 194.871094 316.832031 L 202.898438 316.832031 L 202.898438 300.78125 L 194.871094 300.78125 C 193.425781 300.78125 191.984375 300.816406 190.539062 300.886719 C 189.097656 300.957031 187.65625 301.0625 186.21875 301.207031 C 184.78125 301.347656 183.347656 301.523438 181.917969 301.734375 C 180.488281 301.949219 179.066406 302.195312 177.648438 302.476562 C 176.230469 302.757812 174.820312 303.074219 173.421875 303.425781 C 172.019531 303.777344 170.625 304.164062 169.242188 304.582031 C 167.859375 305 166.488281 305.453125 165.128906 305.941406 C 163.769531 306.429688 162.421875 306.949219 161.085938 307.5 C 159.75 308.054688 158.429688 308.640625 157.125 309.257812 C 155.820312 309.875 154.527344 310.523438 153.253906 311.207031 C 151.980469 311.886719 150.722656 312.597656 149.484375 313.339844 C 148.246094 314.085938 147.023438 314.855469 145.824219 315.660156 C 144.621094 316.460938 143.441406 317.292969 142.28125 318.15625 C 141.121094 319.015625 139.980469 319.902344 138.863281 320.820312 C 137.746094 321.738281 136.652344 322.679688 135.582031 323.652344 C 134.511719 324.621094 133.464844 325.617188 132.445312 326.640625 C 131.421875 327.660156 130.425781 328.707031 129.457031 329.777344 C 128.484375 330.847656 127.542969 331.941406 126.625 333.058594 C 125.710938 334.175781 124.820312 335.3125 123.960938 336.476562 C 123.097656 337.636719 122.265625 338.816406 121.464844 340.019531 C 120.660156 341.21875 119.890625 342.4375 119.144531 343.679688 C 118.402344 344.917969 117.691406 346.175781 117.011719 347.449219 C 116.328125 348.722656 115.679688 350.011719 115.0625 351.320312 C 114.445312 352.625 113.859375 353.945312 113.304688 355.28125 C 112.753906 356.617188 112.234375 357.964844 111.746094 359.324219 C 111.261719 360.683594 110.808594 362.054688 110.386719 363.4375 C 109.96875 364.820312 109.582031 366.214844 109.230469 367.613281 C 108.878906 369.015625 108.5625 370.425781 108.28125 371.84375 C 108 373.261719 107.753906 374.683594 107.542969 376.113281 C 107.328125 377.542969 107.152344 378.976562 107.011719 380.414062 C 106.871094 381.851562 106.761719 383.292969 106.691406 384.734375 C 106.621094 386.179688 106.585938 387.621094 106.585938 389.066406 C 106.585938 390.511719 106.621094 391.957031 106.691406 393.398438 C 106.761719 394.84375 106.871094 396.28125 107.011719 397.71875 C 107.152344 399.160156 107.328125 400.59375 107.542969 402.019531 C 107.753906 403.449219 108 404.875 108.28125 406.289062 C 108.5625 407.707031 108.878906 409.117188 109.230469 410.519531 C 109.582031 411.921875 109.96875 413.3125 110.386719 414.695312 C 110.808594 416.078125 111.261719 417.449219 111.746094 418.808594 C 112.234375 420.167969 112.753906 421.515625 113.304688 422.851562 C 113.859375 424.1875 114.445312 425.507812 115.0625 426.8125 C 115.679688 428.121094 116.328125 429.410156 117.011719 430.683594 C 117.691406 431.957031 118.402344 433.214844 119.144531 434.453125 C 119.890625 435.695312 120.660156 436.914062 121.464844 438.117188 C 122.265625 439.316406 123.097656 440.5 123.960938 441.660156 C 124.820312 442.820312 125.710938 443.957031 126.625 445.074219 C 127.542969 446.191406 128.484375 447.285156 129.457031 448.355469 C 130.425781 449.425781 131.421875 450.472656 132.445312 451.496094 C 133.464844 452.515625 134.511719 453.511719 135.582031 454.484375 C 136.652344 455.453125 137.746094 456.394531 138.863281 457.3125 C 139.980469 458.230469 141.121094 459.117188 142.28125 459.980469 C 143.441406 460.839844 144.621094 461.671875 145.824219 462.472656 C 147.023438 463.277344 148.246094 464.050781 149.484375 464.792969 C 150.722656 465.535156 151.980469 466.246094 153.253906 466.929688 C 154.527344 467.609375 155.820312 468.257812 157.125 468.875 C 158.429688 469.496094 159.75 470.078125 161.085938 470.632812 C 162.421875 471.183594 163.769531 471.707031 165.128906 472.191406 C 166.488281 472.679688 167.859375 473.132812 169.242188 473.550781 C 170.625 473.972656 172.019531 474.355469 173.421875 474.707031 C 174.820312 475.058594 176.230469 475.375 177.648438 475.65625 C 179.066406 475.9375 180.488281 476.183594 181.917969 476.398438 C 183.347656 476.609375 184.78125 476.785156 186.21875 476.929688 C 187.65625 477.070312 189.097656 477.175781 190.539062 477.246094 C 191.984375 477.316406 193.425781 477.351562 194.871094 477.351562 L 294.316406 477.351562 L 279.066406 486.503906 L 287.089844 500.308594 L 327.222656 476.230469 C 327.519531 476.050781 327.804688 475.855469 328.078125 475.644531 C 328.351562 475.429688 328.609375 475.199219 328.851562 474.953125 C 329.09375 474.703125 329.320312 474.441406 329.53125 474.164062 C 329.738281 473.890625 329.929688 473.601562 330.101562 473.296875 C 330.273438 472.996094 330.421875 472.6875 330.554688 472.367188 C 330.6875 472.042969 330.796875 471.714844 330.882812 471.382812 C 330.972656 471.046875 331.039062 470.707031 331.085938 470.363281 C 331.128906 470.019531 331.152344 469.671875 331.152344 469.328125 C 331.152344 468.980469 331.128906 468.636719 331.085938 468.292969 C 331.039062 467.949219 330.972656 467.609375 330.882812 467.273438 C 330.796875 466.9375 330.683594 466.609375 330.554688 466.289062 C 330.421875 465.96875 330.273438 465.65625 330.101562 465.355469 C 329.929688 465.054688 329.738281 464.765625 329.53125 464.488281 C 329.320312 464.210938 329.09375 463.949219 328.851562 463.703125 C 328.609375 463.457031 328.351562 463.226562 328.078125 463.011719 C 327.804688 462.796875 327.519531 462.601562 327.222656 462.425781 L 287.089844 438.347656 L 279.066406 452.152344 L 294.316406 461.300781 L 194.871094 461.300781 C 193.691406 461.300781 192.507812 461.269531 191.328125 461.210938 C 190.148438 461.152344 188.96875 461.066406 187.792969 460.949219 C 186.617188 460.832031 185.445312 460.6875 184.277344 460.515625 C 183.109375 460.339844 181.945312 460.136719 180.785156 459.90625 C 179.625 459.675781 178.472656 459.417969 177.328125 459.128906 C 176.179688 458.839844 175.042969 458.527344 173.910156 458.183594 C 172.78125 457.839844 171.660156 457.46875 170.546875 457.070312 C 169.433594 456.671875 168.332031 456.246094 167.238281 455.792969 C 166.148438 455.339844 165.070312 454.859375 164 454.355469 C 162.933594 453.847656 161.878906 453.316406 160.835938 452.761719 C 159.792969 452.203125 158.765625 451.621094 157.75 451.011719 C 156.738281 450.40625 155.742188 449.773438 154.757812 449.113281 C 153.777344 448.457031 152.808594 447.777344 151.859375 447.074219 C 150.910156 446.371094 149.980469 445.640625 149.066406 444.890625 C 148.152344 444.140625 147.257812 443.371094 146.382812 442.578125 C 145.507812 441.78125 144.652344 440.96875 143.816406 440.132812 C 142.980469 439.296875 142.167969 438.441406 141.375 437.5625 C 140.582031 436.6875 139.808594 435.792969 139.058594 434.878906 C 138.308594 433.964844 137.582031 433.035156 136.878906 432.085938 C 136.175781 431.136719 135.496094 430.167969 134.839844 429.1875 C 134.183594 428.203125 133.550781 427.207031 132.945312 426.191406 C 132.335938 425.179688 131.753906 424.152344 131.199219 423.109375 C 130.640625 422.066406 130.109375 421.011719 129.605469 419.941406 C 129.097656 418.875 128.621094 417.792969 128.167969 416.703125 C 127.714844 415.609375 127.292969 414.507812 126.894531 413.394531 C 126.496094 412.28125 126.125 411.160156 125.78125 410.027344 C 125.4375 408.898438 125.125 407.757812 124.835938 406.613281 C 124.550781 405.464844 124.289062 404.3125 124.058594 403.15625 C 123.828125 401.996094 123.628906 400.832031 123.453125 399.664062 C 123.28125 398.492188 123.136719 397.320312 123.019531 396.144531 C 122.90625 394.96875 122.816406 393.789062 122.761719 392.609375 C 122.703125 391.429688 122.671875 390.25 122.671875 389.066406 C 122.671875 387.886719 122.703125 386.703125 122.761719 385.523438 C 122.816406 384.34375 122.90625 383.164062 123.019531 381.988281 C 123.136719 380.8125 123.28125 379.640625 123.453125 378.472656 C 123.628906 377.300781 123.828125 376.136719 124.058594 374.980469 C 124.289062 373.820312 124.550781 372.667969 124.835938 371.519531 C 125.125 370.375 125.4375 369.234375 125.78125 368.105469 C 126.125 366.972656 126.496094 365.851562 126.894531 364.738281 C 127.292969 363.625 127.714844 362.523438 128.167969 361.433594 C 128.621094 360.339844 129.097656 359.261719 129.605469 358.191406 C 130.109375 357.125 130.640625 356.066406 131.199219 355.027344 C 131.753906 353.984375 132.335938 352.957031 132.945312 351.941406 C 133.550781 350.925781 134.183594 349.929688 134.839844 348.945312 C 135.496094 347.964844 136.175781 346.996094 136.878906 346.046875 C 137.582031 345.097656 138.308594 344.167969 139.058594 343.253906 C 139.808594 342.339844 140.582031 341.445312 141.375 340.570312 C 142.167969 339.695312 142.980469 338.835938 143.816406 338.003906 C 144.652344 337.167969 145.507812 336.351562 146.382812 335.558594 C 147.257812 334.761719 148.152344 333.992188 149.066406 333.242188 C 149.980469 332.492188 150.910156 331.765625 151.859375 331.058594 C 152.808594 330.355469 153.777344 329.675781 154.757812 329.019531 C 155.742188 328.363281 156.738281 327.730469 157.75 327.121094 C 158.765625 326.511719 159.792969 325.929688 160.835938 325.375 C 161.878906 324.816406 162.933594 324.285156 164 323.777344 C 165.070312 323.273438 166.148438 322.792969 167.238281 322.339844 C 168.332031 321.886719 169.433594 321.464844 170.546875 321.0625 C 171.660156 320.664062 172.78125 320.292969 173.910156 319.953125 C 175.042969 319.609375 176.179688 319.292969 177.328125 319.003906 C 178.472656 318.71875 179.625 318.457031 180.785156 318.226562 C 181.945312 317.996094 183.109375 317.792969 184.277344 317.617188 C 185.445312 317.445312 186.617188 317.300781 187.792969 317.183594 C 188.96875 317.066406 190.148438 316.980469 191.328125 316.921875 C 192.507812 316.863281 193.691406 316.832031 194.871094 316.832031 Z M 194.871094 316.832031 " fill-opacity="1" fill-rule="nonzero"/><path fill="#ffffff" d="M 387.496094 140.261719 L 251.054688 140.261719 L 251.054688 156.3125 L 387.496094 156.3125 C 388.679688 156.3125 389.859375 156.339844 391.039062 156.398438 C 392.222656 156.457031 393.398438 156.542969 394.578125 156.660156 C 395.753906 156.777344 396.925781 156.921875 398.09375 157.09375 C 399.265625 157.265625 400.429688 157.46875 401.589844 157.699219 C 402.75 157.929688 403.902344 158.191406 405.046875 158.476562 C 406.195312 158.765625 407.332031 159.078125 408.464844 159.421875 C 409.597656 159.765625 410.71875 160.136719 411.832031 160.535156 C 412.945312 160.933594 414.046875 161.359375 415.140625 161.8125 C 416.230469 162.261719 417.3125 162.742188 418.378906 163.246094 C 419.449219 163.753906 420.503906 164.285156 421.546875 164.839844 C 422.589844 165.398438 423.617188 165.980469 424.632812 166.589844 C 425.644531 167.195312 426.644531 167.828125 427.628906 168.484375 C 428.609375 169.144531 429.578125 169.824219 430.527344 170.527344 C 431.476562 171.230469 432.40625 171.957031 433.320312 172.707031 C 434.234375 173.457031 435.128906 174.230469 436.007812 175.023438 C 436.882812 175.816406 437.738281 176.632812 438.574219 177.46875 C 439.410156 178.304688 440.226562 179.160156 441.019531 180.035156 C 441.8125 180.914062 442.585938 181.808594 443.335938 182.722656 C 444.085938 183.636719 444.8125 184.566406 445.515625 185.515625 C 446.21875 186.464844 446.898438 187.433594 447.558594 188.414062 C 448.214844 189.398438 448.847656 190.398438 449.453125 191.410156 C 450.0625 192.425781 450.644531 193.453125 451.203125 194.496094 C 451.757812 195.539062 452.289062 196.59375 452.796875 197.664062 C 453.300781 198.730469 453.78125 199.8125 454.230469 200.902344 C 454.683594 201.996094 455.109375 203.097656 455.507812 204.210938 C 455.90625 205.324219 456.277344 206.445312 456.621094 207.578125 C 456.964844 208.710938 457.277344 209.847656 457.566406 210.996094 C 457.851562 212.140625 458.113281 213.292969 458.34375 214.453125 C 458.574219 215.613281 458.777344 216.777344 458.949219 217.949219 C 459.121094 219.117188 459.265625 220.289062 459.382812 221.464844 C 459.5 222.644531 459.585938 223.820312 459.644531 225.003906 C 459.703125 226.183594 459.730469 227.363281 459.730469 228.546875 C 459.730469 229.730469 459.703125 230.910156 459.644531 232.089844 C 459.585938 233.273438 459.5 234.449219 459.382812 235.625 C 459.265625 236.804688 459.121094 237.976562 458.949219 239.144531 C 458.777344 240.316406 458.574219 241.480469 458.34375 242.636719 C 458.113281 243.796875 457.851562 244.949219 457.566406 246.097656 C 457.277344 247.246094 456.964844 248.382812 456.621094 249.515625 C 456.277344 250.644531 455.90625 251.769531 455.507812 252.882812 C 455.109375 253.996094 454.683594 255.097656 454.230469 256.1875 C 453.78125 257.28125 453.300781 258.363281 452.796875 259.429688 C 452.289062 260.5 451.757812 261.554688 451.203125 262.597656 C 450.644531 263.640625 450.0625 264.667969 449.453125 265.683594 C 448.847656 266.695312 448.214844 267.695312 447.558594 268.675781 C 446.898438 269.660156 446.21875 270.625 445.515625 271.578125 C 444.8125 272.527344 444.085938 273.457031 443.335938 274.371094 C 442.585938 275.285156 441.8125 276.179688 441.019531 277.054688 C 440.226562 277.933594 439.410156 278.789062 438.574219 279.625 C 437.738281 280.460938 436.882812 281.273438 436.007812 282.070312 C 435.128906 282.863281 434.234375 283.632812 433.320312 284.382812 C 432.40625 285.132812 431.476562 285.859375 430.527344 286.566406 C 429.578125 287.269531 428.609375 287.949219 427.628906 288.605469 C 426.644531 289.265625 425.644531 289.894531 424.632812 290.503906 C 423.617188 291.113281 422.589844 291.695312 421.546875 292.25 C 420.503906 292.808594 419.449219 293.339844 418.378906 293.84375 C 417.3125 294.351562 416.230469 294.828125 415.140625 295.28125 C 414.046875 295.734375 412.945312 296.160156 411.832031 296.558594 C 410.71875 296.957031 409.597656 297.328125 408.464844 297.671875 C 407.332031 298.011719 406.195312 298.328125 405.046875 298.617188 C 403.902344 298.902344 402.75 299.160156 401.589844 299.394531 C 400.429688 299.625 399.265625 299.824219 398.09375 300 C 396.925781 300.171875 395.753906 300.316406 394.578125 300.433594 C 393.398438 300.546875 392.222656 300.636719 391.039062 300.695312 C 389.859375 300.75 388.679688 300.78125 387.496094 300.78125 L 379.46875 300.78125 L 379.46875 316.832031 L 387.496094 316.832031 C 388.941406 316.832031 390.386719 316.796875 391.828125 316.726562 C 393.273438 316.65625 394.710938 316.550781 396.148438 316.40625 C 397.589844 316.265625 399.023438 316.089844 400.449219 315.878906 C 401.878906 315.664062 403.304688 315.417969 404.71875 315.136719 C 406.136719 314.855469 407.546875 314.539062 408.949219 314.1875 C 410.351562 313.835938 411.742188 313.449219 413.125 313.03125 C 414.507812 312.613281 415.878906 312.160156 417.238281 311.671875 C 418.601562 311.183594 419.949219 310.664062 421.28125 310.113281 C 422.617188 309.558594 423.9375 308.972656 425.242188 308.355469 C 426.550781 307.738281 427.839844 307.089844 429.113281 306.40625 C 430.386719 305.726562 431.644531 305.015625 432.882812 304.273438 C 434.125 303.527344 435.34375 302.757812 436.546875 301.953125 C 437.746094 301.152344 438.929688 300.320312 440.089844 299.457031 C 441.25 298.597656 442.386719 297.710938 443.503906 296.792969 C 444.621094 295.875 445.714844 294.933594 446.785156 293.960938 C 447.855469 292.992188 448.902344 291.996094 449.925781 290.972656 C 450.945312 289.953125 451.941406 288.90625 452.914062 287.835938 C 453.882812 286.765625 454.824219 285.671875 455.742188 284.554688 C 456.660156 283.4375 457.546875 282.300781 458.410156 281.136719 C 459.269531 279.976562 460.101562 278.796875 460.902344 277.59375 C 461.707031 276.394531 462.480469 275.175781 463.222656 273.933594 C 463.964844 272.695312 464.675781 271.4375 465.359375 270.164062 C 466.039062 268.890625 466.6875 267.601562 467.304688 266.292969 C 467.925781 264.988281 468.507812 263.667969 469.0625 262.332031 C 469.617188 260.996094 470.136719 259.648438 470.621094 258.289062 C 471.109375 256.929688 471.5625 255.558594 471.980469 254.175781 C 472.402344 252.792969 472.785156 251.398438 473.136719 250 C 473.488281 248.597656 473.804688 247.1875 474.085938 245.769531 C 474.367188 244.351562 474.613281 242.929688 474.828125 241.5 C 475.039062 240.070312 475.214844 238.636719 475.359375 237.199219 C 475.5 235.761719 475.605469 234.320312 475.675781 232.878906 C 475.746094 231.433594 475.78125 229.992188 475.78125 228.546875 C 475.78125 227.101562 475.746094 225.65625 475.675781 224.214844 C 475.605469 222.769531 475.5 221.332031 475.359375 219.894531 C 475.214844 218.453125 475.039062 217.019531 474.828125 215.59375 C 474.613281 214.164062 474.367188 212.738281 474.085938 211.324219 C 473.804688 209.90625 473.488281 208.496094 473.136719 207.09375 C 472.785156 205.691406 472.402344 204.300781 471.980469 202.917969 C 471.5625 201.535156 471.109375 200.164062 470.621094 198.804688 C 470.136719 197.441406 469.617188 196.09375 469.0625 194.761719 C 468.507812 193.425781 467.925781 192.105469 467.304688 190.800781 C 466.6875 189.492188 466.039062 188.203125 465.359375 186.929688 C 464.675781 185.65625 463.964844 184.398438 463.222656 183.160156 C 462.480469 181.917969 461.707031 180.699219 460.902344 179.496094 C 460.101562 178.296875 459.269531 177.113281 458.410156 175.953125 C 457.546875 174.792969 456.660156 173.65625 455.742188 172.539062 C 454.824219 171.421875 453.882812 170.328125 452.914062 169.257812 C 451.941406 168.1875 450.945312 167.140625 449.925781 166.117188 C 448.902344 165.097656 447.855469 164.101562 446.785156 163.128906 C 445.714844 162.160156 444.621094 161.21875 443.503906 160.300781 C 442.386719 159.382812 441.25 158.496094 440.089844 157.632812 C 438.929688 156.773438 437.746094 155.941406 436.546875 155.140625 C 435.34375 154.335938 434.125 153.5625 432.882812 152.820312 C 431.644531 152.078125 430.386719 151.367188 429.113281 150.683594 C 427.839844 150.003906 426.550781 149.355469 425.242188 148.738281 C 423.9375 148.117188 422.617188 147.535156 421.28125 146.980469 C 419.949219 146.425781 418.601562 145.90625 417.238281 145.421875 C 415.878906 144.933594 414.507812 144.480469 413.125 144.0625 C 411.742188 143.640625 410.351562 143.257812 408.949219 142.90625 C 407.546875 142.554688 406.136719 142.238281 404.71875 141.957031 C 403.304688 141.675781 401.878906 141.429688 400.449219 141.214844 C 399.023438 141.003906 397.589844 140.828125 396.148438 140.683594 C 394.710938 140.542969 393.273438 140.4375 391.828125 140.367188 C 390.386719 140.296875 388.941406 140.261719 387.496094 140.261719 Z M 387.496094 140.261719 " fill-opacity="1" fill-rule="nonzero"/><g clip-path="url(#5c82312573)"><path fill="#ffffff" d="M 130.664062 236.574219 C 132.109375 236.574219 133.554688 236.535156 134.996094 236.464844 C 136.4375 236.394531 137.878906 236.289062 139.316406 236.148438 C 140.753906 236.003906 142.1875 235.828125 143.617188 235.617188 C 145.046875 235.40625 146.46875 235.15625 147.886719 234.875 C 149.304688 234.59375 150.714844 234.277344 152.117188 233.925781 C 153.515625 233.574219 154.910156 233.191406 156.292969 232.769531 C 157.675781 232.351562 159.046875 231.898438 160.40625 231.410156 C 161.765625 230.925781 163.113281 230.40625 164.449219 229.851562 C 165.785156 229.300781 167.105469 228.714844 168.410156 228.097656 C 169.71875 227.476562 171.007812 226.828125 172.28125 226.148438 C 173.554688 225.464844 174.8125 224.753906 176.050781 224.011719 C 177.292969 223.269531 178.511719 222.496094 179.714844 221.695312 C 180.914062 220.890625 182.09375 220.058594 183.257812 219.199219 C 184.417969 218.335938 185.554688 217.449219 186.671875 216.53125 C 187.789062 215.617188 188.882812 214.671875 189.953125 213.703125 C 191.023438 212.730469 192.070312 211.734375 193.089844 210.714844 C 194.113281 209.691406 195.109375 208.644531 196.078125 207.574219 C 197.050781 206.503906 197.992188 205.410156 198.910156 204.292969 C 199.828125 203.175781 200.714844 202.039062 201.574219 200.878906 C 202.4375 199.71875 203.269531 198.535156 204.070312 197.335938 C 204.875 196.132812 205.648438 194.914062 206.390625 193.675781 C 207.132812 192.433594 207.84375 191.179688 208.527344 189.902344 C 209.207031 188.628906 209.855469 187.339844 210.472656 186.035156 C 211.089844 184.726562 211.675781 183.40625 212.230469 182.070312 C 212.78125 180.738281 213.300781 179.390625 213.789062 178.027344 C 214.277344 176.667969 214.730469 175.296875 215.148438 173.914062 C 215.566406 172.53125 215.953125 171.140625 216.304688 169.738281 C 216.65625 168.335938 216.972656 166.925781 217.253906 165.511719 C 217.535156 164.09375 217.78125 162.667969 217.996094 161.242188 C 218.207031 159.8125 218.382812 158.378906 218.523438 156.941406 C 218.667969 155.5 218.773438 154.0625 218.84375 152.617188 C 218.914062 151.175781 218.949219 149.730469 218.949219 148.285156 C 218.949219 146.839844 218.914062 145.398438 218.84375 143.953125 C 218.773438 142.511719 218.667969 141.070312 218.523438 139.632812 C 218.382812 138.195312 218.207031 136.761719 217.996094 135.332031 C 217.78125 133.902344 217.535156 132.480469 217.253906 131.0625 C 216.972656 129.644531 216.65625 128.234375 216.304688 126.835938 C 215.953125 125.433594 215.566406 124.039062 215.148438 122.65625 C 214.730469 121.277344 214.277344 119.902344 213.789062 118.542969 C 213.300781 117.183594 212.78125 115.835938 212.230469 114.5 C 211.675781 113.164062 211.089844 111.84375 210.472656 110.539062 C 209.855469 109.234375 209.207031 107.941406 208.527344 106.667969 C 207.84375 105.394531 207.132812 104.136719 206.390625 102.898438 C 205.648438 101.660156 204.875 100.4375 204.070312 99.238281 C 203.269531 98.035156 202.4375 96.855469 201.574219 95.695312 C 200.714844 94.535156 199.828125 93.394531 198.910156 92.277344 C 197.992188 91.160156 197.050781 90.066406 196.078125 88.996094 C 195.109375 87.925781 194.113281 86.878906 193.089844 85.859375 C 192.070312 84.835938 191.023438 83.839844 189.953125 82.871094 C 188.882812 81.898438 187.789062 80.957031 186.671875 80.039062 C 185.554688 79.125 184.417969 78.234375 183.257812 77.375 C 182.09375 76.511719 180.914062 75.683594 179.714844 74.878906 C 178.511719 74.078125 177.292969 73.304688 176.050781 72.5625 C 174.8125 71.816406 173.554688 71.105469 172.28125 70.425781 C 171.007812 69.742188 169.71875 69.09375 168.410156 68.476562 C 167.105469 67.859375 165.785156 67.273438 164.449219 66.71875 C 163.113281 66.167969 161.765625 65.648438 160.40625 65.160156 C 159.046875 64.675781 157.675781 64.222656 156.292969 63.800781 C 154.910156 63.382812 153.515625 62.996094 152.117188 62.644531 C 150.714844 62.292969 149.304688 61.976562 147.886719 61.695312 C 146.46875 61.414062 145.046875 61.167969 143.617188 60.957031 C 142.1875 60.742188 140.753906 60.566406 139.316406 60.425781 C 137.878906 60.285156 136.4375 60.175781 134.996094 60.105469 C 133.554688 60.035156 132.109375 60 130.664062 60 C 129.21875 60 127.773438 60.035156 126.332031 60.105469 C 124.890625 60.175781 123.449219 60.285156 122.011719 60.425781 C 120.574219 60.566406 119.140625 60.742188 117.710938 60.957031 C 116.28125 61.167969 114.855469 61.414062 113.441406 61.695312 C 112.023438 61.976562 110.613281 62.292969 109.210938 62.644531 C 107.8125 62.996094 106.417969 63.382812 105.035156 63.800781 C 103.652344 64.222656 102.28125 64.675781 100.921875 65.160156 C 99.5625 65.648438 98.214844 66.167969 96.878906 66.71875 C 95.542969 67.273438 94.222656 67.859375 92.917969 68.476562 C 91.609375 69.09375 90.320312 69.742188 89.046875 70.425781 C 87.773438 71.105469 86.515625 71.816406 85.277344 72.5625 C 84.035156 73.304688 82.816406 74.078125 81.613281 74.878906 C 80.414062 75.683594 79.230469 76.511719 78.070312 77.375 C 76.910156 78.234375 75.773438 79.125 74.65625 80.039062 C 73.539062 80.957031 72.445312 81.898438 71.375 82.871094 C 70.304688 83.839844 69.257812 84.835938 68.234375 85.859375 C 67.214844 86.878906 66.21875 87.925781 65.25 88.996094 C 64.277344 90.066406 63.335938 91.160156 62.417969 92.277344 C 61.5 93.394531 60.613281 94.535156 59.75 95.695312 C 58.890625 96.855469 58.058594 98.035156 57.257812 99.238281 C 56.453125 100.4375 55.679688 101.660156 54.9375 102.898438 C 54.195312 104.136719 53.484375 105.394531 52.800781 106.667969 C 52.121094 107.941406 51.472656 109.234375 50.855469 110.539062 C 50.238281 111.84375 49.652344 113.164062 49.097656 114.5 C 48.546875 115.835938 48.023438 117.183594 47.539062 118.542969 C 47.050781 119.902344 46.597656 121.277344 46.179688 122.65625 C 45.761719 124.039062 45.375 125.433594 45.023438 126.835938 C 44.671875 128.234375 44.355469 129.644531 44.074219 131.0625 C 43.792969 132.480469 43.546875 133.902344 43.332031 135.332031 C 43.121094 136.761719 42.945312 138.195312 42.804688 139.632812 C 42.660156 141.070312 42.554688 142.511719 42.484375 143.953125 C 42.414062 145.398438 42.378906 146.839844 42.378906 148.285156 C 42.378906 149.730469 42.414062 151.175781 42.484375 152.617188 C 42.554688 154.0625 42.660156 155.5 42.804688 156.941406 C 42.945312 158.378906 43.121094 159.8125 43.332031 161.242188 C 43.546875 162.667969 43.792969 164.09375 44.074219 165.511719 C 44.355469 166.925781 44.671875 168.335938 45.023438 169.738281 C 45.375 171.140625 45.761719 172.53125 46.179688 173.914062 C 46.597656 175.296875 47.050781 176.667969 47.539062 178.027344 C 48.023438 179.390625 48.546875 180.738281 49.097656 182.070312 C 49.652344 183.40625 50.238281 184.726562 50.855469 186.035156 C 51.472656 187.339844 52.121094 188.628906 52.800781 189.902344 C 53.484375 191.179688 54.195312 192.433594 54.9375 193.675781 C 55.679688 194.914062 56.453125 196.132812 57.257812 197.335938 C 58.058594 198.535156 58.890625 199.71875 59.75 200.878906 C 60.613281 202.039062 61.5 203.175781 62.417969 204.292969 C 63.335938 205.410156 64.277344 206.503906 65.25 207.574219 C 66.21875 208.644531 67.214844 209.691406 68.234375 210.714844 C 69.257812 211.734375 70.304688 212.730469 71.375 213.703125 C 72.445312 214.671875 73.539062 215.617188 74.65625 216.53125 C 75.773438 217.449219 76.910156 218.335938 78.070312 219.199219 C 79.230469 220.058594 80.414062 220.890625 81.613281 221.695312 C 82.816406 222.496094 84.035156 223.269531 85.277344 224.011719 C 86.515625 224.753906 87.773438 225.464844 89.046875 226.148438 C 90.320312 226.828125 91.609375 227.476562 92.917969 228.097656 C 94.222656 228.714844 95.542969 229.300781 96.878906 229.851562 C 98.214844 230.40625 99.5625 230.925781 100.921875 231.410156 C 102.28125 231.898438 103.652344 232.351562 105.035156 232.769531 C 106.417969 233.191406 107.8125 233.574219 109.210938 233.925781 C 110.613281 234.277344 112.023438 234.59375 113.441406 234.875 C 114.855469 235.15625 116.28125 235.40625 117.710938 235.617188 C 119.140625 235.828125 120.574219 236.003906 122.011719 236.148438 C 123.449219 236.289062 124.890625 236.394531 126.332031 236.464844 C 127.773438 236.535156 129.21875 236.574219 130.664062 236.574219 Z M 130.664062 76.050781 C 131.847656 76.050781 133.027344 76.082031 134.207031 76.140625 C 135.390625 76.195312 136.566406 76.285156 137.742188 76.398438 C 138.921875 76.515625 140.09375 76.660156 141.261719 76.832031 C 142.433594 77.007812 143.597656 77.210938 144.757812 77.441406 C 145.914062 77.671875 147.070312 77.929688 148.214844 78.21875 C 149.363281 78.503906 150.5 78.820312 151.632812 79.164062 C 152.761719 79.503906 153.886719 79.875 155 80.273438 C 156.113281 80.671875 157.214844 81.097656 158.308594 81.550781 C 159.398438 82.003906 160.480469 82.480469 161.546875 82.988281 C 162.617188 83.492188 163.671875 84.023438 164.714844 84.582031 C 165.757812 85.136719 166.785156 85.722656 167.800781 86.328125 C 168.8125 86.9375 169.8125 87.570312 170.796875 88.226562 C 171.777344 88.882812 172.746094 89.5625 173.695312 90.265625 C 174.644531 90.972656 175.574219 91.699219 176.488281 92.449219 C 177.402344 93.199219 178.296875 93.96875 179.171875 94.765625 C 180.050781 95.558594 180.90625 96.371094 181.742188 97.207031 C 182.578125 98.042969 183.390625 98.902344 184.1875 99.777344 C 184.980469 100.652344 185.75 101.546875 186.5 102.460938 C 187.25 103.375 187.980469 104.308594 188.683594 105.257812 C 189.386719 106.207031 190.066406 107.171875 190.722656 108.15625 C 191.382812 109.136719 192.011719 110.136719 192.621094 111.152344 C 193.230469 112.164062 193.8125 113.191406 194.367188 114.234375 C 194.925781 115.277344 195.457031 116.332031 195.960938 117.402344 C 196.46875 118.472656 196.945312 119.550781 197.398438 120.644531 C 197.851562 121.734375 198.277344 122.839844 198.675781 123.953125 C 199.074219 125.0625 199.445312 126.1875 199.789062 127.316406 C 200.132812 128.449219 200.445312 129.589844 200.734375 130.734375 C 201.019531 131.882812 201.28125 133.035156 201.511719 134.195312 C 201.742188 135.351562 201.941406 136.519531 202.117188 137.6875 C 202.289062 138.855469 202.433594 140.03125 202.550781 141.207031 C 202.667969 142.382812 202.753906 143.5625 202.8125 144.742188 C 202.867188 145.921875 202.898438 147.105469 202.898438 148.285156 C 202.898438 149.46875 202.867188 150.648438 202.8125 151.832031 C 202.753906 153.011719 202.667969 154.191406 202.550781 155.367188 C 202.433594 156.542969 202.289062 157.714844 202.117188 158.886719 C 201.941406 160.054688 201.742188 161.21875 201.511719 162.378906 C 201.28125 163.539062 201.019531 164.691406 200.734375 165.835938 C 200.445312 166.984375 200.132812 168.125 199.789062 169.253906 C 199.445312 170.386719 199.074219 171.507812 198.675781 172.621094 C 198.277344 173.734375 197.851562 174.835938 197.398438 175.929688 C 196.945312 177.019531 196.46875 178.101562 195.960938 179.171875 C 195.457031 180.238281 194.925781 181.292969 194.367188 182.335938 C 193.8125 183.378906 193.230469 184.40625 192.621094 185.421875 C 192.011719 186.4375 191.382812 187.433594 190.722656 188.417969 C 190.066406 189.398438 189.386719 190.367188 188.683594 191.316406 C 187.980469 192.265625 187.25 193.199219 186.5 194.109375 C 185.75 195.023438 184.980469 195.917969 184.1875 196.796875 C 183.390625 197.671875 182.578125 198.527344 181.742188 199.363281 C 180.90625 200.199219 180.050781 201.015625 179.171875 201.808594 C 178.296875 202.601562 177.402344 203.375 176.488281 204.125 C 175.574219 204.875 174.644531 205.601562 173.695312 206.304688 C 172.746094 207.007812 171.777344 207.691406 170.796875 208.347656 C 169.8125 209.003906 168.8125 209.636719 167.800781 210.242188 C 166.785156 210.851562 165.757812 211.433594 164.714844 211.992188 C 163.671875 212.546875 162.617188 213.078125 161.546875 213.585938 C 160.480469 214.089844 159.398438 214.570312 158.308594 215.023438 C 157.214844 215.472656 156.113281 215.898438 155 216.296875 C 153.886719 216.695312 152.761719 217.066406 151.632812 217.410156 C 150.5 217.753906 149.363281 218.070312 148.214844 218.355469 C 147.070312 218.644531 145.914062 218.902344 144.757812 219.132812 C 143.597656 219.363281 142.433594 219.566406 141.261719 219.738281 C 140.09375 219.910156 138.921875 220.058594 137.742188 220.171875 C 136.566406 220.289062 135.390625 220.375 134.207031 220.433594 C 133.027344 220.492188 131.847656 220.519531 130.664062 220.519531 C 129.480469 220.519531 128.300781 220.492188 127.121094 220.433594 C 125.9375 220.375 124.761719 220.289062 123.582031 220.171875 C 122.40625 220.058594 121.234375 219.910156 120.066406 219.738281 C 118.894531 219.566406 117.730469 219.363281 116.570312 219.132812 C 115.414062 218.902344 114.257812 218.644531 113.113281 218.355469 C 111.964844 218.070312 110.828125 217.753906 109.695312 217.410156 C 108.5625 217.066406 107.441406 216.695312 106.328125 216.296875 C 105.214844 215.898438 104.113281 215.472656 103.019531 215.023438 C 101.929688 214.570312 100.847656 214.089844 99.78125 213.585938 C 98.710938 213.078125 97.65625 212.546875 96.613281 211.992188 C 95.570312 211.433594 94.542969 210.851562 93.527344 210.242188 C 92.515625 209.636719 91.515625 209.003906 90.53125 208.347656 C 89.550781 207.691406 88.582031 207.007812 87.632812 206.304688 C 86.683594 205.601562 85.753906 204.875 84.839844 204.125 C 83.925781 203.375 83.03125 202.601562 82.15625 201.808594 C 81.277344 201.015625 80.421875 200.199219 79.585938 199.363281 C 78.75 198.527344 77.9375 197.671875 77.140625 196.796875 C 76.347656 195.917969 75.574219 195.023438 74.824219 194.109375 C 74.078125 193.199219 73.347656 192.265625 72.644531 191.316406 C 71.941406 190.367188 71.261719 189.398438 70.601562 188.417969 C 69.945312 187.433594 69.3125 186.4375 68.707031 185.421875 C 68.097656 184.40625 67.515625 183.378906 66.960938 182.335938 C 66.402344 181.292969 65.871094 180.238281 65.363281 179.171875 C 64.859375 178.101562 64.378906 177.019531 63.929688 175.929688 C 63.476562 174.835938 63.050781 173.734375 62.652344 172.621094 C 62.253906 171.507812 61.882812 170.386719 61.539062 169.253906 C 61.195312 168.125 60.882812 166.984375 60.59375 165.835938 C 60.308594 164.691406 60.046875 163.539062 59.816406 162.378906 C 59.585938 161.21875 59.386719 160.054688 59.210938 158.886719 C 59.039062 157.714844 58.894531 156.542969 58.777344 155.367188 C 58.660156 154.191406 58.574219 153.011719 58.515625 151.832031 C 58.457031 150.648438 58.429688 149.46875 58.429688 148.285156 C 58.429688 147.105469 58.457031 145.921875 58.515625 144.742188 C 58.574219 143.5625 58.660156 142.382812 58.777344 141.207031 C 58.894531 140.03125 59.039062 138.855469 59.210938 137.6875 C 59.386719 136.519531 59.585938 135.351562 59.816406 134.195312 C 60.046875 133.035156 60.308594 131.882812 60.59375 130.734375 C 60.882812 129.589844 61.195312 128.449219 61.539062 127.316406 C 61.882812 126.1875 62.253906 125.0625 62.652344 123.953125 C 63.050781 122.839844 63.476562 121.734375 63.929688 120.644531 C 64.378906 119.550781 64.859375 118.472656 65.363281 117.402344 C 65.871094 116.332031 66.402344 115.277344 66.960938 114.234375 C 67.515625 113.191406 68.097656 112.164062 68.707031 111.152344 C 69.3125 110.136719 69.945312 109.136719 70.601562 108.15625 C 71.261719 107.171875 71.941406 106.207031 72.644531 105.257812 C 73.347656 104.308594 74.078125 103.375 74.824219 102.460938 C 75.574219 101.546875 76.347656 100.652344 77.140625 99.777344 C 77.9375 98.902344 78.75 98.042969 79.585938 97.207031 C 80.421875 96.371094 81.277344 95.558594 82.15625 94.765625 C 83.03125 93.96875 83.925781 93.199219 84.839844 92.449219 C 85.753906 91.699219 86.683594 90.972656 87.632812 90.265625 C 88.582031 89.5625 89.550781 88.882812 90.53125 88.226562 C 91.515625 87.570312 92.515625 86.9375 93.527344 86.328125 C 94.542969 85.722656 95.570312 85.136719 96.613281 84.582031 C 97.65625 84.023438 98.710938 83.492188 99.78125 82.988281 C 100.847656 82.480469 101.929688 82.003906 103.019531 81.550781 C 104.113281 81.097656 105.214844 80.671875 106.328125 80.273438 C 107.441406 79.875 108.5625 79.503906 109.695312 79.164062 C 110.828125 78.820312 111.964844 78.503906 113.113281 78.21875 C 114.257812 77.929688 115.414062 77.671875 116.570312 77.441406 C 117.730469 77.210938 118.894531 77.007812 120.066406 76.832031 C 121.234375 76.660156 122.40625 76.515625 123.582031 76.398438 C 124.761719 76.285156 125.9375 76.195312 127.121094 76.140625 C 128.300781 76.082031 129.480469 76.050781 130.664062 76.050781 Z M 130.664062 76.050781 " fill-opacity="1" fill-rule="nonzero"/></g><path fill="#ffffff" d="M 130.664062 108.15625 C 131.191406 108.15625 131.714844 108.183594 132.238281 108.234375 C 132.761719 108.285156 133.28125 108.363281 133.796875 108.464844 C 134.3125 108.566406 134.820312 108.695312 135.324219 108.847656 C 135.828125 109 136.320312 109.175781 136.808594 109.378906 C 137.292969 109.578125 137.765625 109.804688 138.230469 110.050781 C 138.695312 110.300781 139.144531 110.570312 139.582031 110.863281 C 140.019531 111.152344 140.441406 111.464844 140.847656 111.800781 C 141.253906 112.132812 141.644531 112.484375 142.015625 112.859375 C 142.386719 113.230469 142.738281 113.617188 143.074219 114.023438 C 143.40625 114.429688 143.71875 114.851562 144.011719 115.289062 C 144.304688 115.726562 144.574219 116.175781 144.820312 116.640625 C 145.070312 117.105469 145.292969 117.578125 145.492188 118.066406 C 145.695312 118.550781 145.871094 119.046875 146.023438 119.546875 C 146.175781 120.050781 146.304688 120.5625 146.40625 121.078125 C 146.511719 121.59375 146.585938 122.113281 146.640625 122.636719 C 146.691406 123.15625 146.714844 123.683594 146.714844 124.207031 C 146.714844 124.734375 146.691406 125.257812 146.636719 125.78125 C 146.585938 126.304688 146.511719 126.824219 146.40625 127.339844 C 146.304688 127.855469 146.175781 128.363281 146.023438 128.867188 C 145.871094 129.371094 145.695312 129.867188 145.492188 130.351562 C 145.292969 130.835938 145.070312 131.3125 144.820312 131.773438 C 144.574219 132.238281 144.304688 132.6875 144.011719 133.125 C 143.71875 133.5625 143.40625 133.984375 143.074219 134.390625 C 142.738281 134.796875 142.386719 135.1875 142.015625 135.558594 C 141.644531 135.929688 141.253906 136.28125 140.847656 136.617188 C 140.441406 136.949219 140.019531 137.261719 139.582031 137.554688 C 139.144531 137.847656 138.695312 138.117188 138.230469 138.363281 C 137.765625 138.613281 137.292969 138.835938 136.808594 139.039062 C 136.320312 139.238281 135.828125 139.417969 135.324219 139.570312 C 134.820312 139.722656 134.3125 139.847656 133.796875 139.953125 C 133.28125 140.054688 132.761719 140.132812 132.238281 140.183594 C 131.714844 140.234375 131.191406 140.261719 130.664062 140.261719 C 130.136719 140.261719 129.613281 140.3125 129.097656 140.414062 C 128.582031 140.515625 128.078125 140.667969 127.59375 140.871094 C 127.105469 141.074219 126.644531 141.320312 126.203125 141.613281 C 125.765625 141.90625 125.359375 142.238281 124.988281 142.609375 C 124.617188 142.984375 124.285156 143.390625 123.992188 143.828125 C 123.699219 144.265625 123.449219 144.726562 123.25 145.214844 C 123.046875 145.703125 122.894531 146.203125 122.792969 146.71875 C 122.6875 147.238281 122.636719 147.757812 122.636719 148.285156 L 122.636719 172.363281 L 138.691406 172.363281 L 138.691406 155.269531 C 139.652344 155.019531 140.601562 154.726562 141.539062 154.390625 C 142.476562 154.054688 143.394531 153.671875 144.296875 153.25 C 145.195312 152.828125 146.074219 152.363281 146.933594 151.859375 C 147.792969 151.355469 148.625 150.8125 149.433594 150.230469 C 150.238281 149.648438 151.019531 149.03125 151.769531 148.378906 C 152.519531 147.722656 153.234375 147.035156 153.921875 146.3125 C 154.609375 145.59375 155.257812 144.84375 155.875 144.0625 C 156.492188 143.28125 157.070312 142.472656 157.609375 141.636719 C 158.152344 140.800781 158.652344 139.941406 159.113281 139.058594 C 159.574219 138.179688 159.992188 137.277344 160.371094 136.355469 C 160.75 135.433594 161.082031 134.5 161.371094 133.546875 C 161.664062 132.59375 161.90625 131.632812 162.109375 130.65625 C 162.308594 129.683594 162.464844 128.699219 162.574219 127.710938 C 162.683594 126.722656 162.746094 125.730469 162.761719 124.734375 C 162.78125 123.738281 162.75 122.746094 162.675781 121.753906 C 162.601562 120.761719 162.480469 119.773438 162.3125 118.792969 C 162.144531 117.8125 161.933594 116.839844 161.675781 115.878906 C 161.417969 114.917969 161.117188 113.972656 160.769531 113.039062 C 160.425781 112.105469 160.039062 111.191406 159.605469 110.292969 C 159.175781 109.394531 158.707031 108.519531 158.191406 107.667969 C 157.679688 106.8125 157.128906 105.984375 156.542969 105.183594 C 155.953125 104.382812 155.328125 103.609375 154.667969 102.863281 C 154.007812 102.121094 153.3125 101.410156 152.585938 100.730469 C 151.859375 100.050781 151.101562 99.40625 150.3125 98.796875 C 149.527344 98.1875 148.714844 97.617188 147.875 97.082031 C 147.035156 96.550781 146.171875 96.054688 145.285156 95.601562 C 144.398438 95.148438 143.492188 94.738281 142.570312 94.371094 C 141.644531 94 140.707031 93.675781 139.75 93.394531 C 138.796875 93.113281 137.832031 92.875 136.855469 92.683594 C 135.878906 92.492188 134.894531 92.34375 133.90625 92.246094 C 132.914062 92.144531 131.921875 92.089844 130.925781 92.082031 C 129.933594 92.074219 128.9375 92.109375 127.945312 92.195312 C 126.957031 92.28125 125.96875 92.410156 124.992188 92.585938 C 124.011719 92.761719 123.042969 92.980469 122.082031 93.25 C 121.125 93.515625 120.179688 93.824219 119.25 94.179688 C 118.320312 94.53125 117.40625 94.929688 116.515625 95.367188 C 115.621094 95.804688 114.75 96.285156 113.902344 96.804688 C 113.050781 97.324219 112.230469 97.882812 111.433594 98.476562 C 110.636719 99.074219 109.867188 99.707031 109.128906 100.371094 C 108.390625 101.039062 107.6875 101.742188 107.015625 102.472656 C 106.339844 103.207031 105.703125 103.96875 105.101562 104.761719 C 104.5 105.554688 103.933594 106.371094 103.410156 107.21875 C 102.882812 108.0625 102.398438 108.929688 101.953125 109.820312 C 101.507812 110.710938 101.105469 111.617188 100.742188 112.546875 C 100.382812 113.472656 100.066406 114.414062 99.792969 115.371094 C 99.519531 116.328125 99.292969 117.296875 99.109375 118.277344 C 98.925781 119.253906 98.789062 120.238281 98.695312 121.230469 C 98.605469 122.21875 98.558594 123.214844 98.558594 124.207031 L 114.613281 124.207031 C 114.613281 123.683594 114.636719 123.15625 114.6875 122.636719 C 114.742188 122.113281 114.816406 121.59375 114.921875 121.078125 C 115.023438 120.5625 115.152344 120.050781 115.304688 119.546875 C 115.457031 119.046875 115.632812 118.550781 115.832031 118.066406 C 116.035156 117.578125 116.257812 117.105469 116.507812 116.640625 C 116.753906 116.175781 117.023438 115.726562 117.316406 115.289062 C 117.609375 114.851562 117.921875 114.429688 118.253906 114.023438 C 118.589844 113.617188 118.941406 113.230469 119.3125 112.859375 C 119.683594 112.484375 120.074219 112.132812 120.480469 111.800781 C 120.886719 111.464844 121.308594 111.152344 121.746094 110.863281 C 122.183594 110.570312 122.632812 110.300781 123.097656 110.050781 C 123.5625 109.804688 124.035156 109.578125 124.519531 109.378906 C 125.007812 109.175781 125.5 109 126.003906 108.847656 C 126.507812 108.695312 127.015625 108.566406 127.53125 108.464844 C 128.046875 108.363281 128.566406 108.285156 129.089844 108.234375 C 129.613281 108.183594 130.136719 108.15625 130.664062 108.15625 Z M 130.664062 108.15625 " fill-opacity="1" fill-rule="nonzero"/><path fill="#ffffff" d="M 122.636719 188.417969 L 138.691406 188.417969 L 138.691406 204.46875 L 122.636719 204.46875 Z M 122.636719 188.417969 " fill-opacity="1" fill-rule="nonzero"/><g clip-path="url(#10d4abe575)"><g clip-path="url(#db46d6f79b)"><g transform="matrix(1, 0, 0, 1, 188, 190)"><g clip-path="url(#cc354eebcf)"><g clip-path="url(#32e78bc63a)"><g clip-path="url(#1a8ce45542)"><path fill="#ffffff" d="M 0.882812 0.992188 L 11.074219 0.992188 L 11.074219 11.183594 L 0.882812 11.183594 Z M 0.882812 0.992188 " fill-opacity="1" fill-rule="nonzero"/></g></g></g></g></g></g></svg>